<?xml version="1.0" standalone="no"?>
<!DOCTYPE svg>

<svg width="100%" height="100%" version="1.1"
xmlns="http://www.w3.org/2000/svg">

	<circle cx="40" cy="42" r="28" fill="black">
		<animate id="b1" attributeName="fill" from="black" to="#FF2D2D" begin="5s;b2.end" dur="0.2s" />
		<animate id="b2" attributeName="fill" from="#FF2D2D" to="black" begin="b1.end" dur="0.2s" />
	</circle>

	<path transform="scale(1.3)" d="M56.255,17.986c3.506-3.602,3.498-9.286,0.09-12.914c0.639,0.359,1.45,0.288,1.984-0.261   c0.639-0.655,0.625-1.704-0.031-2.342c-0.654-0.638-1.704-0.623-2.342,0.031c-0.534,0.549-0.583,1.362-0.208,1.99   c-3.717-3.308-9.4-3.162-12.906,0.439l6.1,5.938l-2.866,2.945c-3.952-2.9-8.81-4.636-14.075-4.636   c-5.267,0-10.124,1.736-14.076,4.636l-2.867-2.945l6.1-5.938c-3.505-3.602-9.189-3.747-12.906-0.439   c0.375-0.628,0.327-1.441-0.208-1.99C7.405,1.847,6.356,1.832,5.702,2.47C5.046,3.108,5.032,4.156,5.67,4.812   c0.534,0.549,1.346,0.62,1.984,0.261C4.247,8.7,4.239,14.385,7.745,17.986l6.1-5.937l2.736,2.81   c-5.157,4.381-8.445,10.901-8.445,18.182c0,9.237,5.285,17.247,12.98,21.212H16.65l-3.698,5.895L15.905,62l2.673-4.26H29.86h4.28   h11.282L48.096,62l2.952-1.852l-3.698-5.895h-4.466c7.696-3.965,12.98-11.975,12.98-21.212c0-7.281-3.287-13.801-8.444-18.182   l2.735-2.81L56.255,17.986z M51.508,33.042c0,10.757-8.752,19.508-19.507,19.508c-10.757,0-19.508-8.751-19.508-19.508   S21.244,13.534,32,13.534C42.756,13.534,51.508,22.285,51.508,33.042z" stroke="#8E8E8E" stroke-width="2"/>

	<text class="text" x="35" y="52" font-size="25" font-weight="100" fill="#80FFFF" stroke="#80FFFF" stroke-width="1" opacity="1">5
		<animate attributeName="opacity" from="1" to="0" begin="1s" dur="0.1s" fill="freeze"></animate>
	</text>

	<text class="text" x="34" y="52" font-size="25" font-weight="100" fill="#80FFFF" stroke="#80FFFF" stroke-width="1" opacity="0">4
		<animate attributeName="opacity" from="0" to="1" begin="1s" dur="1s"></animate>
		<animate attributeName="opacity" from="1" to="0" begin="2s" dur="0.1s" fill="freeze"></animate>
	</text>

	<text class="text" x="35" y="53" font-size="25" font-weight="100" fill="#80FFFF"  stroke="#80FFFF" stroke-width="1" opacity="0">3
		<animate attributeName="opacity" from="0" to="1" begin="2s" dur="1s"></animate>
		<animate attributeName="opacity" from="1" to="0" begin="3s" dur="0.1s" fill="freeze"></animate>
	</text>

	<text class="text" x="35" y="53" font-size="25" font-weight="100" fill="#80FFFF"  stroke="#80FFFF" stroke-width="1" opacity="0">2
		<animate attributeName="opacity" from="0" to="1" begin="3s" dur="1s"></animate>
		<animate attributeName="opacity" from="1" to="0" begin="4s" dur="0.1s" fill="freeze"></animate>
	</text>

	<text class="text" x="35" y="53" font-size="25" font-weight="100" fill="#80FFFF"  stroke="#80FFFF" stroke-width="1" opacity="0">1
		<animate attributeName="opacity" from="0" to="1" begin="4s" dur="1s"></animate>
		<animate attributeName="opacity" from="1" to="0" begin="5s" dur="0.1s" fill="freeze"></animate>
	</text>

	<text class="text" x="35" y="53" font-size="25" font-weight="100" fill="white"  stroke="white" stroke-width="1" opacity="0">0
		<animate attributeName="opacity" from="0" to="1" begin="5s" dur="1s" fill="freeze"></animate>
	</text>
	
</svg>